<?xml version="1.0" encoding="UTF-8"?>
<svg id="Layer_1" xmlns="http://www.w3.org/2000/svg" xmlns:v="https://vecta.io/nano" version="1.1" viewBox="0 0 1000 1000">
  <!-- Generator: Adobe Illustrator 30.3.0, SVG Export Plug-In . SVG Version: 2.1.3 Build 182)  -->
  <defs>
    <style>
      .st0 {
        fill-rule: evenodd;
      }

      .st0, .st1 {
        fill: #fff;
      }
    </style>
  </defs>
  <g>
    <path class="st1" d="M711.7,479.3c-2.6-.7-1.9-3.8.9-3.4,70.8,9.6,270.3,43.7,274.3,126.2,5.1,105.5-262.6,148.6-346.8,159.5-2.9.4-4.1-3.2-1.3-4.1,74.7-22.9,298.7-96.6,294.5-156.2-3.9-55.3-160.9-104.9-221.6-122h0Z"/>
    <path class="st1" d="M631.1,493.8c-1.5-.4-1.2-2.4.3-2.4,30.3,1.5,109.4,9.4,119.7,50.4,13.1,52.3-33,78.9-59.1,89.9-38.7,16.3-68.3,25-157.2,29.2-25.3,1.2-54.6-2.9-72.3-6-1.6-.3-1.4-2.6.3-2.6,21.8,0,64.5-3,124.3-18.7,88.8-23.4,129.7-55.2,125.7-90-3-26.5-57.6-43.5-81.8-49.8h0ZM318.4,488.1c3.5-.5,3.4,4.1,0,5.2-38.5,11.6-99.2,36.3-94.4,73.5,6.1,47.1,71.1,54.2,91.9,59,17.3,4,58.5,10.7,79.6,14,2.1.3.4,3.1-2,3.2-42.2,2.4-168.1,6.7-204.9-41.4-47.7-62.4,62.6-103.4,129.7-113.5h.1Z"/>
    <path class="st1" d="M779.3,532.9c-1.7-1.2-3.5,0-2.2,1.5,22,25,70.8,101.4-93.9,139-161.6,36.9-345.4,6.1-412.9-8.1-2-.4-2.9,2.7-1,3.3,71.7,24.2,275.8,74.6,428.9,41.1,177.4-38.8,161.2-119.9,81.1-176.8h0Z"/>
    <path class="st1" d="M197.9,482.6c2.5-.6,3.7,2.5,1.3,3.5-85,34-146.7,80.9-118,124.9,33.5,51.5,203,123,382.9,138.8,2.7.2,2.2,3.8-.5,3.9-79,5.2-319.8-2.1-424-103.2-97.7-94.8,101.8-154.4,158.3-167.9h0Z"/>
    <path class="st1" d="M317,547.4c5.6-6.3,16.5-6.9,25.9-9,9.8-2.2,19.1-4.6,28.1-8.3,19.9-8,35.5-19.9,48.8-32.7,24.4-23.5,42-52.2,37.6-79.8-1.6-4-3.7-7.9-6.4-11.9-6.4-9.4-13.3-18.7-16.9-28.7-5.2-14.6,5.4-43.2,33.2-45.3,30.3-2.3,36.6,15.2,39.8,29.6,1.8,8,.4,16.3-2.4,24.1-1.5,4.2-3.5,8.2-5.5,12.3-1.6,3.1-1.9,5.9-2.9,9.1-2.6,8.4-5.8,16.2-7,25-1.3,10.2-1.2,20.6,2.1,30.5,3.4,10.2,8.6,20,15.1,28.9,21.1,29.2,62.6,50.4,111.2,55.9,3.1.4,7.4,1,9.2,2.9,2.7,2.8,1.9,6.4,1.4,7.5-6.2,15.7-32.7,27-55,32.5-30.1,7.4-63,10.4-94.5,11-32.1.6-63.2-2.8-92.9-10-25.5-6.2-53.3-15.4-67.5-31.9-.8-.6-1.5-1.4-2.1-2.2-2.2-2.9-1.9-6.6.7-9.5h0Z"/>
  </g>
  <path class="st0" d="M469.9,298.1c29.7,0,53.8-24.2,53.8-53.9s-24.2-53.8-53.8-53.8-53.9,24.2-53.9,53.8,24.2,53.9,53.9,53.9h0Z"/>
</svg>